<svg width="61" height="49" viewBox="0 0 61 49" fill="none" xmlns="http://www.w3.org/2000/svg">
<g clip-path="url(#clip0)" filter="url(#filter0_d)">
<path d="M30.6235 5.8136L19.337 18.7388L13.6182 25.8679H9.56879L10.6487 28.6147L8.75757 32.7356H17.1267L18.2067 36.8565L42.634 36.1335L43.5812 32.1869L52.4895 31.9117L51.1408 28.8898L52.2191 25.3176L46.8211 25.0441L35.2137 10.4832L30.6235 5.8136Z" fill="white"/>
<path d="M43.2702 36.9999H17.7412C17.6567 37.0001 17.5729 36.9833 17.4948 36.9505C17.4166 36.9177 17.3456 36.8695 17.2858 36.8086C17.2261 36.7478 17.1787 36.6756 17.1464 36.596C17.1142 36.5165 17.0977 36.4313 17.0979 36.3452V21.1332C17.0967 20.9842 17.1459 20.8393 17.2373 20.7229L30.1698 4.24601C30.23 4.16887 30.3067 4.10664 30.3939 4.06401C30.4812 4.02137 30.5769 3.99945 30.6737 3.99988C30.7705 3.99957 30.8661 4.02155 30.9533 4.06418C31.0406 4.1068 31.1172 4.16897 31.1775 4.24601L43.7741 20.3503C43.8387 20.4328 43.8828 20.53 43.9027 20.6335C43.9226 20.7371 43.9177 20.844 43.8883 20.9451C43.9058 21.0057 43.9148 21.0684 43.9152 21.1314V36.3435C43.9154 36.4298 43.8989 36.5152 43.8665 36.595C43.8342 36.6747 43.7867 36.7472 43.7268 36.8081C43.6668 36.8691 43.5957 36.9175 43.5173 36.9504C43.439 36.9833 43.355 37.0001 43.2702 36.9999ZM18.3777 35.6906H42.6219V21.1314C42.6216 21.0884 42.6255 21.0455 42.6337 21.0033L30.6586 5.70911L18.3777 21.3656V35.6906Z" fill="#8C6CFF"/>
<path d="M17.7413 36.988C17.6166 36.988 17.4946 36.9511 17.3902 36.8819C17.2857 36.8126 17.2033 36.7139 17.1529 36.5978C17.1026 36.4817 17.0865 36.3533 17.1065 36.228C17.1266 36.1028 17.182 35.9862 17.266 35.8924L30.1985 21.4854C30.259 21.4185 30.3324 21.3651 30.4143 21.3286C30.4961 21.2921 30.5845 21.2733 30.6738 21.2734C30.7636 21.2736 30.8525 21.2929 30.9346 21.33C31.0167 21.3671 31.0903 21.4211 31.1508 21.4888L43.7557 35.6566C43.8704 35.7853 43.9302 35.9551 43.9219 36.1287C43.9135 36.3023 43.8377 36.4654 43.7112 36.5821C43.5847 36.6988 43.4178 36.7596 43.2473 36.7511C43.0767 36.7427 42.9165 36.6656 42.8018 36.5368L30.657 22.904L18.2099 36.7778C18.1502 36.8437 18.0777 36.8964 17.9971 36.9326C17.9165 36.9687 17.8294 36.9876 17.7413 36.988Z" fill="#8C6CFF"/>
<path d="M30.7192 21.6785C30.5487 21.678 30.3854 21.6089 30.2648 21.4862C30.1443 21.3636 30.0764 21.1973 30.0759 21.0238V4.85458C30.0759 4.68096 30.1437 4.51446 30.2643 4.39169C30.385 4.26892 30.5486 4.19995 30.7192 4.19995C30.8898 4.19995 31.0534 4.26892 31.1741 4.39169C31.2947 4.51446 31.3625 4.68096 31.3625 4.85458V21.0238C31.3625 21.1975 31.2947 21.364 31.1741 21.4867C31.0534 21.6095 30.8898 21.6785 30.7192 21.6785Z" fill="#8C6CFF"/>
<path d="M43.2702 22.3502H17.7412C17.6254 22.3554 17.5098 22.3367 17.4013 22.2952C17.2928 22.2537 17.1937 22.1903 17.1099 22.1088C17.0262 22.0272 16.9595 21.9293 16.914 21.8208C16.8684 21.7123 16.845 21.5956 16.845 21.4777C16.845 21.3597 16.8684 21.243 16.914 21.1345C16.9595 21.0261 17.0262 20.9281 17.1099 20.8466C17.1937 20.765 17.2928 20.7016 17.4013 20.6601C17.5098 20.6186 17.6254 20.5999 17.7412 20.6051H43.2702C43.386 20.5999 43.5016 20.6186 43.6101 20.6601C43.7186 20.7016 43.8177 20.765 43.9015 20.8466C43.9852 20.9281 44.0519 21.0261 44.0974 21.1345C44.143 21.243 44.1664 21.3597 44.1664 21.4777C44.1664 21.5956 44.143 21.7123 44.0974 21.8208C44.0519 21.9293 43.9852 22.0272 43.9015 22.1088C43.8177 22.1903 43.7186 22.2537 43.6101 22.2952C43.5016 22.3367 43.386 22.3554 43.2702 22.3502Z" fill="#8C6CFF"/>
<path d="M14.4312 29.5734L17.1251 27.5753L17.7348 31.6535L14.4312 29.5734Z" fill="#8C6CFF"/>
<path d="M43.655 27.5753V31.1476L46.2029 29.8588L44.9281 27.9001L43.655 27.5753Z" fill="#8C6CFF"/>
<path d="M13.6851 20.4991C13.6851 20.4991 30.2118 10.495 47.1332 20.735V29.3837C30.2118 19.142 13.6851 29.1478 13.6851 29.1478V20.4991Z" fill="white"/>
<path d="M47.1333 30.0383C47.0151 30.0397 46.8988 30.0077 46.7974 29.946C30.395 20.0188 14.1689 29.6042 14.0077 29.7101C13.9101 29.7685 13.7992 29.7996 13.686 29.8003C13.5728 29.8011 13.4615 29.7714 13.3632 29.7144C13.2649 29.6573 13.1831 29.5749 13.1261 29.4754C13.0691 29.376 13.0389 29.2629 13.0386 29.1478V20.4991C13.0384 20.3855 13.0675 20.2738 13.1229 20.1752C13.1783 20.0765 13.2581 19.9943 13.3543 19.9368C13.5223 19.8342 30.4067 9.85236 47.4491 20.1727C47.5453 20.2302 47.6251 20.3124 47.6805 20.411C47.7359 20.5097 47.765 20.6214 47.7648 20.735V29.3837C47.7649 29.4994 47.7349 29.6131 47.6776 29.7131C47.6203 29.8131 47.538 29.8959 47.439 29.9528C47.3456 30.0066 47.2406 30.0359 47.1333 30.0383ZM30.7695 24.1483C36.268 24.1264 41.6803 25.5387 46.49 28.2505V21.1093C31.4564 12.2384 16.653 19.6154 14.3285 20.8854V28.0641C16.653 26.8882 22.9193 24.1483 30.7695 24.1483Z" fill="#8C6CFF"/>
<path d="M17.7413 32.8432H8.64323C8.53954 32.8432 8.4374 32.8176 8.3455 32.7687C8.25361 32.7198 8.17469 32.6491 8.11547 32.5625C8.05625 32.4758 8.01849 32.3759 8.00539 32.2712C7.9923 32.1666 8.00427 32.0602 8.04028 31.9613L9.24451 28.6659L8.04028 25.3654C8.00427 25.2664 7.9923 25.1601 8.00539 25.0554C8.01849 24.9507 8.05625 24.8508 8.11547 24.7642C8.17469 24.6775 8.25361 24.6068 8.3455 24.5579C8.4374 24.509 8.53954 24.4834 8.64323 24.4834H13.6365C13.8071 24.4834 13.9707 24.5524 14.0914 24.6751C14.212 24.7979 14.2798 24.9644 14.2798 25.138C14.2798 25.3117 14.212 25.4782 14.0914 25.6009C13.9707 25.7237 13.8071 25.7927 13.6365 25.7927H9.56866L10.5327 28.442C10.5864 28.5886 10.5864 28.75 10.5327 28.8966L9.56866 31.5339H17.7413C17.9119 31.5339 18.0755 31.6029 18.1962 31.7257C18.3168 31.8485 18.3846 32.015 18.3846 32.1886C18.3846 32.3622 18.3168 32.5287 18.1962 32.6515C18.0755 32.7742 17.9119 32.8432 17.7413 32.8432Z" fill="#8C6CFF"/>
<path d="M52.3568 32.8432H43.2705C43.0999 32.8432 42.9362 32.7743 42.8156 32.6515C42.695 32.5287 42.6272 32.3622 42.6272 32.1886C42.6272 32.015 42.695 31.8485 42.8156 31.7257C42.9362 31.6029 43.0999 31.534 43.2705 31.534H51.4364L50.4723 28.8932C50.4187 28.7466 50.4187 28.5852 50.4723 28.4385L51.4364 25.7978H47.3635C47.1929 25.7978 47.0293 25.7288 46.9087 25.6061C46.788 25.4833 46.7202 25.3168 46.7202 25.1432C46.7202 24.9695 46.788 24.803 46.9087 24.6803C47.0293 24.5575 47.1929 24.4885 47.3635 24.4885H52.3568C52.4605 24.4886 52.5626 24.5141 52.6545 24.563C52.7464 24.6119 52.8253 24.6827 52.8845 24.7693C52.9438 24.8559 52.9815 24.9558 52.9946 25.0605C53.0077 25.1652 52.9958 25.2715 52.9597 25.3705L51.7555 28.6659L52.9597 31.9613C52.9958 32.0602 53.0077 32.1666 52.9946 32.2712C52.9815 32.3759 52.9438 32.4758 52.8845 32.5625C52.8253 32.6491 52.7464 32.7198 52.6545 32.7687C52.5626 32.8176 52.4605 32.8432 52.3568 32.8432Z" fill="#8C6CFF"/>
<path d="M17.7413 32.8431C17.6024 32.8435 17.467 32.7986 17.355 32.7149L13.3073 29.7186C13.1693 29.6164 13.0767 29.4626 13.0501 29.2909C13.0235 29.1193 13.065 28.9439 13.1654 28.8034C13.2659 28.6628 13.4171 28.5687 13.5857 28.5416C13.7544 28.5145 13.9267 28.5567 14.0648 28.6589L18.1125 31.6603C18.2224 31.7408 18.3044 31.8547 18.3469 31.9855C18.3893 32.1164 18.39 32.2576 18.3488 32.3888C18.3076 32.5201 18.2267 32.6347 18.1175 32.7163C18.0084 32.7979 17.8767 32.8423 17.7413 32.8431Z" fill="#8C6CFF"/>
<path d="M43.2705 32.8432C43.1349 32.8431 43.0028 32.7994 42.893 32.7183C42.7833 32.6372 42.7016 32.5229 42.6595 32.3918C42.6174 32.2606 42.6171 32.1192 42.6586 31.9879C42.7002 31.8565 42.7815 31.7419 42.8909 31.6604L46.7538 28.794C46.822 28.7415 46.8997 28.7034 46.9825 28.6818C47.0653 28.6603 47.1515 28.6557 47.236 28.6684C47.3206 28.6811 47.4018 28.7108 47.4749 28.7558C47.548 28.8008 47.6116 28.8602 47.6619 28.9305C47.7123 29.0008 47.7483 29.0806 47.768 29.1652C47.7877 29.2499 47.7906 29.3376 47.7766 29.4234C47.7625 29.5092 47.7319 29.5913 47.6863 29.6649C47.6408 29.7385 47.5813 29.8021 47.5113 29.852L43.6484 32.7184C43.5384 32.7993 43.4062 32.843 43.2705 32.8432Z" fill="#8C6CFF"/>
<path d="M16.9015 20.9657C17.0695 20.8959 17.2552 20.8833 17.4308 20.9298C17.6064 20.9763 17.7625 21.0795 17.8756 21.2238L19.6812 23.521C19.7281 23.5829 19.7606 23.655 19.776 23.7316C19.7914 23.8082 19.7894 23.8874 19.7701 23.9631C19.7508 24.0389 19.7148 24.1091 19.6647 24.1684C19.6146 24.2278 19.5519 24.2747 19.4813 24.3056L19.4477 24.3192C19.3438 24.3624 19.2287 24.369 19.1207 24.338C19.0127 24.3071 18.9179 24.2403 18.8515 24.1483L17.9378 22.8014C17.7144 22.4733 17.4255 22.0631 17.1937 21.7127H17.1719C17.2475 22.1297 17.3399 22.622 17.402 23.0151L17.6657 24.6252C17.6894 24.7409 17.6722 24.8614 17.6172 24.9655C17.5622 25.0696 17.4729 25.1506 17.3651 25.1944C17.2935 25.2228 17.2165 25.2343 17.1399 25.2278C17.0634 25.2213 16.9893 25.1971 16.9233 25.1571C16.8574 25.117 16.8013 25.0621 16.7594 24.9966C16.7175 24.931 16.6908 24.8566 16.6815 24.779L16.3976 21.8426C16.3784 21.6608 16.417 21.4775 16.5077 21.3197C16.5984 21.1619 16.7364 21.0378 16.9015 20.9657ZM16.9015 23.5398L18.6684 22.8014L18.9791 23.574L17.2139 24.309L16.9015 23.5398Z" fill="#8C6CFF"/>
<path d="M21.0737 22.9228L21.5104 22.8203L21.0065 20.5983L20.5699 20.7025C20.5127 20.7162 20.4535 20.7181 20.3956 20.7083C20.3377 20.6984 20.2823 20.677 20.2326 20.6452C20.183 20.6134 20.14 20.5719 20.1062 20.523C20.0724 20.4742 20.0485 20.419 20.0358 20.3607C20.0226 20.3025 20.0209 20.2423 20.0306 20.1835C20.0404 20.1247 20.0615 20.0684 20.0927 20.0179C20.1239 19.9674 20.1647 19.9236 20.2125 19.8892C20.2604 19.8548 20.3145 19.8303 20.3717 19.8172L22.2477 19.383C22.3047 19.3699 22.3637 19.3683 22.4214 19.3784C22.479 19.3884 22.5341 19.41 22.5835 19.4417C22.633 19.4734 22.6758 19.5148 22.7095 19.5634C22.7432 19.612 22.7672 19.6668 22.7801 19.7249C22.7931 19.7829 22.7946 19.8429 22.7847 19.9016C22.7748 19.9602 22.7537 20.0163 22.7225 20.0666C22.6913 20.1169 22.6507 20.1605 22.6029 20.1948C22.5552 20.2291 22.5013 20.2536 22.4442 20.2667L22.0076 20.3709L22.5114 22.5929L22.9464 22.4887C23.0036 22.475 23.0628 22.4731 23.1207 22.4829C23.1786 22.4928 23.234 22.5142 23.2836 22.546C23.3333 22.5778 23.3763 22.6194 23.4101 22.6682C23.4439 22.717 23.4678 22.7722 23.4805 22.8305C23.4937 22.8887 23.4954 22.9489 23.4856 23.0077C23.4759 23.0665 23.4548 23.1228 23.4235 23.1733C23.3923 23.2238 23.3516 23.2676 23.3038 23.302C23.2559 23.3365 23.2018 23.3609 23.1446 23.3741L21.2686 23.8048C21.2115 23.8182 21.1525 23.8199 21.0948 23.8099C21.0371 23.8 20.9819 23.7785 20.9324 23.7467C20.8829 23.7149 20.8401 23.6735 20.8064 23.6248C20.7727 23.5761 20.7488 23.5211 20.7361 23.4629C20.7106 23.3458 20.7318 23.2231 20.7951 23.1218C20.8584 23.0205 20.9586 22.949 21.0737 22.9228Z" fill="#8C6CFF"/>
<path d="M24.9063 18.9318C25.0313 18.9176 25.1576 18.9427 25.2681 19.0039C25.3786 19.065 25.4681 19.1592 25.5243 19.2737L26.171 20.6239L26.6043 21.5008C26.4781 20.9937 26.3783 20.4802 26.3053 19.9625L26.2381 19.2873C26.2277 19.1553 26.2678 19.0242 26.3501 18.9216C26.4325 18.8191 26.5506 18.7529 26.6799 18.737C26.7445 18.7301 26.8098 18.7363 26.8721 18.7552C26.9344 18.7741 26.9924 18.8053 27.0428 18.8471C27.0932 18.8889 27.135 18.9403 27.1658 18.9986C27.1966 19.0568 27.2159 19.1207 27.2224 19.1865L27.5146 22.1229C27.5301 22.2878 27.4808 22.4523 27.3776 22.5803C27.2744 22.7084 27.1256 22.7898 26.9637 22.8066C26.8385 22.8207 26.712 22.7955 26.6012 22.7344C26.4905 22.6733 26.4007 22.5792 26.344 22.4648L25.6973 21.1077L25.2657 20.2377C25.3908 20.7449 25.49 21.2583 25.563 21.776L25.6352 22.4597C25.6419 22.5254 25.6358 22.5919 25.6173 22.6553C25.5987 22.7187 25.568 22.7777 25.527 22.829C25.4859 22.8803 25.4353 22.9229 25.3781 22.9542C25.3209 22.9856 25.2581 23.0051 25.1935 23.0117C25.1288 23.0186 25.0635 23.0124 25.0012 22.9935C24.9389 22.9746 24.8809 22.9434 24.8305 22.9016C24.7801 22.8598 24.7383 22.8084 24.7075 22.7501C24.6767 22.6919 24.6575 22.628 24.651 22.5622L24.3537 19.6206C24.3373 19.4547 24.3863 19.289 24.4899 19.1598C24.5935 19.0307 24.7433 18.9486 24.9063 18.9318Z" fill="#8C6CFF"/>
<path d="M29.1724 21.7896H29.6208L29.6091 19.5147H29.1606C29.0429 19.5151 28.9297 19.4681 28.846 19.3838C28.7623 19.2996 28.7148 19.185 28.7139 19.0651C28.7136 19.0052 28.7251 18.9459 28.7476 18.8905C28.7701 18.8351 28.8031 18.7848 28.8448 18.7425C28.8865 18.7002 28.9361 18.6668 28.9906 18.6441C29.0451 18.6215 29.1034 18.61 29.1623 18.6105L31.0971 18.6002C31.1556 18.6 31.2135 18.6115 31.2676 18.634C31.3217 18.6566 31.3709 18.6898 31.4124 18.7317C31.4538 18.7736 31.4868 18.8234 31.5094 18.8783C31.5319 18.9331 31.5437 18.992 31.5439 19.0515C31.5443 19.1713 31.4981 19.2864 31.4153 19.3716C31.3325 19.4569 31.2199 19.5052 31.1022 19.5061H30.6537L30.6655 21.7811H31.1139C31.2318 21.7811 31.345 21.8285 31.4287 21.913C31.5123 21.9976 31.5598 22.1123 31.5607 22.2323C31.5611 22.3522 31.5149 22.4673 31.4321 22.5525C31.3493 22.6377 31.2367 22.6861 31.119 22.687L29.1825 22.6972C29.124 22.6975 29.0661 22.686 29.012 22.6634C28.9579 22.6409 28.9087 22.6077 28.8673 22.5658C28.8258 22.5239 28.7928 22.4741 28.7702 22.4192C28.7477 22.3643 28.7359 22.3055 28.7357 22.246C28.7348 22.1267 28.7801 22.0119 28.8619 21.9265C28.9437 21.8411 29.0552 21.7919 29.1724 21.7896Z" fill="#8C6CFF"/>
<path d="M32.8235 21.9777L34.6542 19.7557L33.5709 19.6481C33.4536 19.6364 33.3456 19.5778 33.2707 19.4852C33.1957 19.3926 33.16 19.2735 33.1712 19.1541C33.1827 19.0347 33.2402 18.9248 33.3312 18.8485C33.4222 18.7723 33.5392 18.7359 33.6566 18.7473L35.5293 18.9319C35.6588 18.9449 35.778 19.0095 35.8607 19.1117C35.9435 19.2139 35.9832 19.3453 35.971 19.4771C35.9613 19.5772 35.9221 19.672 35.8585 19.7489L34.0328 21.9726L35.2958 22.0974C35.4131 22.1091 35.5211 22.1676 35.5961 22.2602C35.671 22.3528 35.7068 22.4719 35.6955 22.5913C35.6841 22.7107 35.6265 22.8206 35.5355 22.8969C35.4445 22.9732 35.3275 23.0096 35.2102 22.9981L33.1544 22.8016C33.0901 22.7956 33.0276 22.7767 32.9705 22.746C32.9134 22.7153 32.8629 22.6734 32.8218 22.6227C32.7808 22.572 32.75 22.5135 32.7312 22.4506C32.7125 22.3877 32.7062 22.3217 32.7127 22.2563C32.7214 22.1543 32.7601 22.0573 32.8235 21.9777Z" fill="#8C6CFF"/>
<path d="M38.3593 19.4293L39.8541 19.7711C39.9111 19.7842 39.965 19.8087 40.0128 19.843C40.0605 19.8773 40.1011 19.9209 40.1323 19.9712C40.1635 20.0215 40.1847 20.0776 40.1946 20.1362C40.2045 20.1949 40.2029 20.2549 40.19 20.3129C40.1639 20.4298 40.0935 20.5313 39.994 20.5954C39.8945 20.6595 39.7742 20.6808 39.6593 20.6548L38.5037 20.3882L38.3643 21.0137L39.2864 21.2257C39.3435 21.2384 39.3975 21.2625 39.4453 21.2966C39.4932 21.3307 39.5339 21.3742 39.5651 21.4244C39.5964 21.4746 39.6175 21.5307 39.6273 21.5893C39.6372 21.6479 39.6354 21.7079 39.6223 21.7658C39.6096 21.8237 39.5858 21.8786 39.5522 21.9272C39.5187 21.9757 39.476 22.0171 39.4267 22.0488C39.3774 22.0806 39.3224 22.1021 39.2649 22.1122C39.2074 22.1223 39.1485 22.1208 39.0916 22.1076L38.1712 21.8957L38.0133 22.6067L39.2293 22.8853C39.3442 22.9122 39.444 22.9843 39.507 23.0858C39.5699 23.1873 39.5908 23.31 39.5652 23.4272C39.5388 23.5441 39.468 23.6457 39.3682 23.7097C39.2685 23.7738 39.1479 23.7951 39.0328 23.769L37.4792 23.4118C37.3007 23.3702 37.1456 23.2584 37.0478 23.1009C36.9499 22.9433 36.9172 22.7528 36.9569 22.5708L37.5363 19.9608C37.5764 19.7794 37.6856 19.6216 37.8399 19.522C37.9941 19.4223 38.1809 19.389 38.3593 19.4293Z" fill="#8C6CFF"/>
<path d="M41.7957 20.7828C41.8372 20.6704 41.9208 20.5794 42.0282 20.5297C42.1356 20.4801 42.258 20.4758 42.3684 20.5179L43.3174 20.882C44.1085 21.1862 44.6812 21.7366 44.3251 22.6801C43.9892 23.603 43.1645 23.7261 42.3735 23.4219L41.9788 23.2697L41.6865 24.0577C41.6627 24.1231 41.6263 24.183 41.5795 24.234C41.5327 24.2849 41.4764 24.3259 41.4139 24.3545C41.3514 24.3832 41.2839 24.3989 41.2154 24.4007C41.1468 24.4026 41.0786 24.3906 41.0147 24.3654C40.9506 24.3409 40.8919 24.3037 40.8419 24.2561C40.792 24.2084 40.7518 24.1511 40.7237 24.0876C40.6956 24.024 40.6801 23.9554 40.6782 23.8858C40.6763 23.8161 40.6879 23.7467 40.7124 23.6817L41.7957 20.7828ZM42.5985 22.5963C42.9832 22.7433 43.2519 22.6459 43.3728 22.316C43.4937 21.9861 43.3308 21.8032 42.9479 21.6562L42.612 21.5315L42.2626 22.4715L42.5985 22.5963ZM43.1965 22.6715L43.4484 24.4901C43.46 24.5776 43.4492 24.6667 43.4171 24.7486C43.385 24.8306 43.3326 24.9028 43.265 24.9581C43.1974 25.0135 43.117 25.0502 43.0314 25.0646C42.9458 25.079 42.8581 25.0707 42.7766 25.0405C42.6894 25.0069 42.6131 24.9493 42.5562 24.8741C42.4992 24.799 42.4639 24.7093 42.4541 24.6149L42.2962 23.0903L43.1965 22.6715Z" fill="#8C6CFF"/>
</g>
<defs>
<filter id="filter0_d" x="0" y="0" width="61" height="49" filterUnits="userSpaceOnUse" color-interpolation-filters="sRGB">
<feFlood flood-opacity="0" result="BackgroundImageFix"/>
<feColorMatrix in="SourceAlpha" type="matrix" values="0 0 0 0 0 0 0 0 0 0 0 0 0 0 0 0 0 0 127 0"/>
<feOffset dy="4"/>
<feGaussianBlur stdDeviation="4"/>
<feColorMatrix type="matrix" values="0 0 0 0 0 0 0 0 0 0 0 0 0 0 0 0 0 0 0.25 0"/>
<feBlend mode="normal" in2="BackgroundImageFix" result="effect1_dropShadow"/>
<feBlend mode="normal" in="SourceGraphic" in2="effect1_dropShadow" result="shape"/>
</filter>
<clipPath id="clip0">
<rect width="45" height="33" fill="white" transform="translate(8 4)"/>
</clipPath>
</defs>
</svg>
