<svg width="15" height="14" viewBox="0 0 15 14" fill="none" xmlns="http://www.w3.org/2000/svg">
    <path fill-rule="evenodd" clip-rule="evenodd"
        d="M4.1 1.8C4.1 2.79411 3.29411 3.6 2.3 3.6C1.30589 3.6 0.5 2.79411 0.5 1.8C0.5 0.805887 1.30589 0 2.3 0C3.29411 0 4.1 0.805887 4.1 1.8ZM7.6 0.799999C6.99249 0.799999 6.5 1.29249 6.5 1.9C6.5 2.50751 6.99249 3 7.6 3H13.4C14.0075 3 14.5 2.50751 14.5 1.9C14.5 1.29249 14.0075 0.799999 13.4 0.799999H7.6ZM7.6 10.8C6.99249 10.8 6.5 11.2925 6.5 11.9C6.5 12.5075 6.99249 13 7.6 13H13.4C14.0075 13 14.5 12.5075 14.5 11.9C14.5 11.2925 14.0075 10.8 13.4 10.8H7.6ZM0.5 6.9C0.5 6.29249 0.992487 5.8 1.6 5.8H7.4C8.00751 5.8 8.5 6.29249 8.5 6.9C8.5 7.50751 8.00751 8 7.4 8H1.6C0.992487 8 0.5 7.50751 0.5 6.9ZM2.3 13.6C3.29411 13.6 4.1 12.7941 4.1 11.8C4.1 10.8059 3.29411 10 2.3 10C1.30589 10 0.5 10.8059 0.5 11.8C0.5 12.7941 1.30589 13.6 2.3 13.6ZM14.1 6.8C14.1 7.79411 13.2941 8.6 12.3 8.6C11.3059 8.6 10.5 7.79411 10.5 6.8C10.5 5.80589 11.3059 5 12.3 5C13.2941 5 14.1 5.80589 14.1 6.8Z"
        fill="white" />
</svg>