<svg width="48" height="48" viewBox="0 0 48 48" fill="none" xmlns="http://www.w3.org/2000/svg">
    <g>
        <path class="tw" fill-rule="evenodd" clip-rule="evenodd"
            d="M12.0312 31.9688C6.65625 26.5938 6.65625 13.4062 12.0312 8.03125C17.4062 2.65625 30.5938 2.65625 35.9688 8.03125C41.3438 13.4062 41.3438 26.5938 35.9688 31.9688C30.5938 37.3438 17.4062 37.3438 12.0312 31.9688Z"
            fill="#1BB7EB" />
        <path fill-rule="evenodd" clip-rule="evenodd"
            d="M32.5296 13.6647C31.8565 14.0679 31.1111 14.3611 30.315 14.5223C29.6782 13.8333 28.7735 13.4082 27.7676 13.4082C25.8425 13.4082 24.2793 14.9914 24.2793 16.9412C24.2793 17.2197 24.3082 17.4909 24.3734 17.7475C21.4713 17.6009 18.9021 16.1935 17.1797 14.0532C16.8829 14.5736 16.7092 15.182 16.7092 15.8271C16.7092 17.0511 17.3244 18.136 18.2652 18.7663C17.6935 18.7517 17.1579 18.5904 16.6875 18.3265V18.3705C16.6875 20.0857 17.8889 21.5077 19.4883 21.8375C19.1988 21.9182 18.8876 21.9621 18.5692 21.9621C18.3448 21.9621 18.1277 21.9401 17.9106 21.8962C18.3521 23.3035 19.6403 24.3223 21.1673 24.3517C19.9732 25.2972 18.4679 25.8616 16.8323 25.8616C16.55 25.8616 16.275 25.8469 16 25.8103C17.527 26.8218 19.3653 27.4082 21.3338 27.4082C27.7531 27.4082 31.2631 22.0208 31.2631 17.3517C31.2631 17.1977 31.2631 17.0438 31.2559 16.8972C31.9361 16.3988 32.5296 15.7757 33 15.0647C32.3776 15.3433 31.7046 15.5339 30.9953 15.6218C31.719 15.182 32.2691 14.493 32.5296 13.6647Z"
            fill="white" />
    </g>
</svg>